<svg width="56" height="50" viewBox="0 0 56 50" fill="none" xmlns="http://www.w3.org/2000/svg">
<g clip-path="url(#clip0_0_20)" filter="url(#filter0_d_0_20)">
<path d="M17.0001 38H13.0001C12.4481 38 12.0001 37.552 12.0001 37C12.0001 36.448 12.4481 36 13.0001 36H17.0001C17.5521 36 18.0001 36.448 18.0001 37C18.0001 37.552 17.5521 38 17.0001 38Z" fill="#156963"/>
<path d="M49.5 38H47C46.448 38 46 37.552 46 37C46 36.448 46.448 36 47 36H48.67L50.018 28.816C50 25.14 46.86 22 43 22H36.434L33.252 36H39C39.552 36 40 36.448 40 37C40 37.552 39.552 38 39 38H32C31.696 38 31.408 37.862 31.218 37.624C31.028 37.388 30.956 37.076 31.024 36.78L34.66 20.78C34.764 20.322 35.168 20 35.636 20H43C47.962 20 52 24.038 52 29L50.482 37.184C50.394 37.658 49.982 38 49.5 38Z" fill="#156963"/>
<path d="M42.9999 42C40.2439 42 37.9999 39.758 37.9999 37C37.9999 34.242 40.2439 32 42.9999 32C45.7559 32 47.9999 34.242 47.9999 37C47.9999 39.758 45.7559 42 42.9999 42ZM42.9999 34C41.3459 34 39.9999 35.346 39.9999 37C39.9999 38.654 41.3459 40 42.9999 40C44.6539 40 45.9999 38.654 45.9999 37C45.9999 35.346 44.6539 34 42.9999 34Z" fill="#156963"/>
<path d="M21 42C18.244 42 16 39.758 16 37C16 34.242 18.244 32 21 32C23.756 32 26 34.242 26 37C26 39.758 23.756 42 21 42ZM21 34C19.346 34 18 35.346 18 37C18 38.654 19.346 40 21 40C22.654 40 24 38.654 24 37C24 35.346 22.654 34 21 34Z" fill="#156963"/>
<path d="M16.9999 20H8.99994C8.44794 20 7.99994 19.552 7.99994 19C7.99994 18.448 8.44794 18 8.99994 18H16.9999C17.5519 18 17.9999 18.448 17.9999 19C17.9999 19.552 17.5519 20 16.9999 20Z" fill="#156963"/>
<path d="M17.0001 26H7.00006C6.44806 26 6.00006 25.552 6.00006 25C6.00006 24.448 6.44806 24 7.00006 24H17.0001C17.5521 24 18.0001 24.448 18.0001 25C18.0001 25.552 17.5521 26 17.0001 26Z" fill="#156963"/>
<path d="M17 32H5C4.448 32 4 31.552 4 31C4 30.448 4.448 30 5 30H17C17.552 30 18 30.448 18 31C18 31.552 17.552 32 17 32Z" fill="#156963"/>
<path d="M32.0001 38H25.0001C24.4481 38 24.0001 37.552 24.0001 37C24.0001 36.448 24.4481 36 25.0001 36H31.2021L35.7461 16H13.0001C12.4481 16 12.0001 15.552 12.0001 15C12.0001 14.448 12.4481 14 13.0001 14H37.0001C37.3041 14 37.5921 14.138 37.7821 14.376C37.9721 14.612 38.0441 14.924 37.9761 15.22L32.9761 37.22C32.8721 37.678 32.4661 38 32.0001 38Z" fill="#156963"/>
</g>
<defs>
<filter id="filter0_d_0_20" x="0" y="0" width="56" height="56" filterUnits="userSpaceOnUse" color-interpolation-filters="sRGB">
<feFlood flood-opacity="0" result="BackgroundImageFix"/>
<feColorMatrix in="SourceAlpha" type="matrix" values="0 0 0 0 0 0 0 0 0 0 0 0 0 0 0 0 0 0 127 0" result="hardAlpha"/>
<feOffset dy="4"/>
<feGaussianBlur stdDeviation="2"/>
<feComposite in2="hardAlpha" operator="out"/>
<feColorMatrix type="matrix" values="0 0 0 0 0 0 0 0 0 0 0 0 0 0 0 0 0 0 0.25 0"/>
<feBlend mode="normal" in2="BackgroundImageFix" result="effect1_dropShadow_0_20"/>
<feBlend mode="normal" in="SourceGraphic" in2="effect1_dropShadow_0_20" result="shape"/>
</filter>
<clipPath id="clip0_0_20">
<rect width="48" height="48" fill="white" transform="translate(4)"/>
</clipPath>
</defs>
</svg>
