<svg width="48" height="48" viewBox="0 0 48 48" fill="none" xmlns="http://www.w3.org/2000/svg">
<path d="M24 47.9999C37.2341 47.9999 48 37.234 48 23.9999C48.0058 20.8256 47.3782 17.6821 46.1531 14.7536C46.0244 14.4379 45.7357 14.2149 45.3978 14.171C45.0593 14.1265 44.723 14.2668 44.5169 14.5386C44.3114 14.8108 44.2669 15.1726 44.4015 15.4861C45.5297 18.1826 46.1075 21.0772 46.1017 23.9999C46.1017 36.1869 36.187 46.1016 24 46.1016C11.813 46.1016 1.8983 36.1869 1.8983 23.9999C1.8983 11.8129 11.813 1.8982 24 1.8982C26.4767 1.89502 28.9364 2.30922 31.2754 3.12384C31.5959 3.23771 31.9534 3.17098 32.2113 2.94905C32.4693 2.72765 32.589 2.38443 32.5249 2.05021C32.4608 1.716 32.2225 1.44163 31.9004 1.33146C29.3602 0.446928 26.6896 -0.00328333 24 -0.000105363C10.7659 -0.000105363 0 10.7658 0 23.9999C0 37.234 10.7659 47.9999 24 47.9999Z" fill="#156963"/>
</svg>
